<svg width="256" height="42" viewBox="0 0 256 42" fill="none" xmlns="http://www.w3.org/2000/svg">
<path d="M18.9097 41.9503C26.4153 41.9503 30.5464 38.1102 32.1173 33.6883V41.0194H39.4484V19.8406H19.7824V27.3463H30.1391V27.4045C28.9172 32.0591 25.2517 34.1537 21.1788 34.1537C14.6623 34.1537 10.3567 29.0918 10.3567 20.8297C10.3567 13.2077 14.255 7.97115 20.8879 7.97115C25.7171 7.97115 29.2663 10.6476 30.43 15.4768L39.0993 12.1022C37.3538 5.93472 31.3027 0 21.1206 0C9.30937 0 0 7.73841 0 21.237C0 34.3283 8.55298 41.9503 18.9097 41.9503Z" fill="#312E29"/>
<path d="M64.7947 41.9503C76.0241 41.9503 82.7734 35.3756 84.868 26.5899L75.8495 23.7971C74.9186 29.0336 71.7767 33.921 65.4347 33.921C58.4526 33.921 54.9035 28.9172 54.9035 20.9461C54.9035 12.8586 59.0345 8.02933 65.551 8.02933C70.7294 8.02933 73.9877 11.3458 75.035 16.2914L84.0534 13.2077C82.1334 5.52744 75.5586 0 65.6092 0C54.0307 0 44.5468 7.97115 44.5468 21.237C44.5468 32.5246 51.5288 41.9503 64.7947 41.9503Z" fill="#312E29"/>
<path d="M87.6717 31.5937C89.4754 36.3065 94.0137 41.9503 105.185 41.9503C115.716 41.9503 122 36.7138 122 29.4409C122 23.6225 118.451 19.2006 110.247 17.0478L103.149 15.1859C99.7739 14.3132 98.2029 13.2077 98.2029 10.9967C98.2029 8.61117 100.414 7.09839 104.429 7.09839C108.501 7.09839 111.469 9.25119 112.574 12.684L112.691 13.324L121.244 10.5312L121.069 9.83302C119.033 3.72375 113.04 0 104.894 0C95.4683 0 88.719 4.48013 88.719 11.8694C88.719 18.9097 93.141 22.1679 100.239 24.0298L106.058 25.5426C110.363 26.7063 111.934 27.9863 111.934 30.3136C111.934 32.8737 109.665 34.5028 105.418 34.5028C100.239 34.5028 97.5047 32.1755 95.4101 27.1135L95.1192 26.4153L87.148 30.3718L87.6717 31.5937Z" fill="#312E29"/>
<path d="M147.689 12.279C149.88 12.279 151.086 11.1581 151.545 9.86737V12.0073H153.685V5.82531H147.944V8.01618H150.967V8.03316C150.611 9.39183 149.541 10.0032 148.352 10.0032C146.45 10.0032 145.193 8.52568 145.193 6.11403C145.193 3.8892 146.331 2.3607 148.267 2.3607C149.677 2.3607 150.712 3.14193 151.052 4.55156L153.583 3.56652C153.073 1.76628 151.307 0.0339664 148.335 0.0339664C144.887 0.0339664 142.17 2.29276 142.17 6.23292C142.17 10.0542 144.666 12.279 147.689 12.279Z" fill="#312E29"/>
<path d="M158.62 12.0073V7.76142H161.083C162.51 7.76142 163.104 8.33886 163.24 9.95229L163.41 12.0073H166.518L166.144 9.54468C165.855 7.52366 164.853 6.64052 163.308 6.53862C165.04 6.33482 166.637 5.45168 166.637 3.41367C166.637 1.52851 165.346 0.305702 162.713 0.305702H155.733V12.0073H158.62ZM158.62 2.49656H161.932C163.189 2.49656 163.749 3.14193 163.749 3.8892C163.749 4.92519 163.189 5.58755 161.66 5.58755H158.62V2.49656Z" fill="#312E29"/>
<path d="M178.22 12.0073V9.66357H171.358V7.2689H176.844V4.95916H171.358V2.64941H177.931V0.305702H168.454V12.0073H178.22Z" fill="#312E29"/>
<path d="M186.571 6.92924L187.302 9.71452H183.735V7.69349H185.892V5.31581H183.735V4.24586L187.438 3.22685V4.58552H190.121V0L183.735 1.78326V0.305702H181.052V2.53053L179.336 3.00607V5.45168L181.052 4.97614V9.71452H179.336V12.0073H190.41L189.696 9.3239H191.055V6.92924H186.571Z" fill="#312E29"/>
<path d="M195.219 12.0073V3.02305L200.569 12.0073H204.084V0.305702H201.401V8.55964L196.595 0.305702H192.553V12.0073H195.219Z" fill="#312E29"/>
<path d="M218.46 8.10109L216.184 0.305702H213.076L210.783 8.15204L208.44 0.305702H205.281L209.238 12.0073H212.006L214.503 3.44763L216.965 12.0073H219.717L223.538 0.305702H220.77L218.46 8.10109Z" fill="#312E29"/>
<path d="M226.629 12.0073L229.55 0.305702H226.629L223.708 12.0073H226.629Z" fill="#312E29"/>
<path d="M236.215 12.279C239.493 12.279 241.463 10.3599 242.074 7.79539L239.442 6.98019C239.17 8.50869 238.253 9.9353 236.402 9.9353C234.364 9.9353 233.328 8.47473 233.328 6.148C233.328 3.7873 234.533 2.37768 236.436 2.37768C237.947 2.37768 238.898 3.34573 239.204 4.78932L241.836 3.8892C241.276 1.64739 239.357 0.0339664 236.452 0.0339664C233.073 0.0339664 230.304 2.3607 230.304 6.23292C230.304 9.5277 232.343 12.279 236.215 12.279Z" fill="#312E29"/>
<path d="M246.425 12.0073V7.42176H252.216V12.0073H255.171V0.305702H252.216V4.90821H246.425V0.305702H243.47V12.0073H246.425Z" fill="#312E29"/>
<path d="M148.08 27.1395C151.358 27.1395 153.328 25.2204 153.939 22.6559L151.307 21.8407C151.035 23.3692 150.118 24.7958 148.267 24.7958C146.229 24.7958 145.193 23.3352 145.193 21.0085C145.193 18.6478 146.399 17.2382 148.301 17.2382C149.812 17.2382 150.763 18.2062 151.069 19.6498L153.702 18.7497C153.141 16.5079 151.222 14.8945 148.318 14.8945C144.938 14.8945 142.17 17.2212 142.17 21.0934C142.17 24.3882 144.208 27.1395 148.08 27.1395Z" fill="#312E29"/>
<path d="M160.583 27.1395C163.725 27.1395 166.035 25.7808 166.035 22.554V15.1662H163.08V22.3332C163.08 24.1674 162.247 24.8298 160.668 24.8298C159.122 24.8298 158.273 24.1334 158.273 22.2992V15.1662H155.216V22.4181C155.216 25.645 157.339 27.1395 160.583 27.1395Z" fill="#312E29"/>
<path d="M177.223 26.8678V24.3542H171.177V15.1662H168.222V26.8678H177.223Z" fill="#312E29"/>
<path d="M188.148 15.1662H177.992V18.5799H180.353V17.2891H182.119L179.928 19.7347C179.062 20.7028 178.23 21.8067 178.23 23.3013C178.23 25.56 180.166 27.0376 183.019 27.0376C186.212 27.0376 187.859 25.628 187.859 23.59C187.859 21.6878 186.551 20.499 184.581 20.499C184.089 20.499 183.613 20.6009 183.325 20.7368L183.715 22.9786C183.919 22.9106 184.089 22.8767 184.259 22.8767C184.887 22.8767 185.125 23.1994 185.125 23.573C185.125 24.2523 184.446 24.6599 183.257 24.6599C181.643 24.6599 181.015 23.8957 181.015 22.9786C181.015 22.1294 181.524 21.518 182.408 20.499L185.278 17.2891H185.77V19.2422H188.148V15.1662Z" fill="#312E29"/>
<path d="M195.064 27.1395C198.206 27.1395 200.516 25.7808 200.516 22.554V15.1662H197.561V22.3332C197.561 24.1674 196.728 24.8298 195.149 24.8298C193.603 24.8298 192.754 24.1334 192.754 22.2992V15.1662H189.697V22.4181C189.697 25.645 191.82 27.1395 195.064 27.1395Z" fill="#312E29"/>
<path d="M205.59 26.8678V22.6219H208.053C209.479 22.6219 210.074 23.1994 210.21 24.8128L210.38 26.8678H213.487L213.114 24.4052C212.825 22.3841 211.823 21.501 210.278 21.3991C212.01 21.1953 213.606 20.3122 213.606 18.2742C213.606 16.389 212.316 15.1662 209.683 15.1662H202.703V26.8678H205.59ZM205.59 17.3571H208.902C210.159 17.3571 210.719 18.0024 210.719 18.7497C210.719 19.7857 210.159 20.448 208.63 20.448H205.59V17.3571Z" fill="#312E29"/>
<path d="M220.043 14.9964C216.868 14.9964 214.711 16.6098 214.711 19.446C214.711 20.8217 215.288 22.3162 215.475 22.8087L216.969 26.8678H219.738L218.379 23.0295H221.708L220.349 26.8678H223.083L224.612 22.8087C224.833 22.2483 225.393 20.8217 225.393 19.446C225.393 16.6098 223.236 14.9964 220.043 14.9964ZM220.043 17.374C221.691 17.374 222.608 18.2572 222.608 19.5649C222.608 19.8706 222.54 20.2273 222.455 20.6349H217.632C217.53 20.2273 217.479 19.8706 217.479 19.5649C217.479 18.2572 218.396 17.374 220.043 17.374Z" fill="#312E29"/>
<path d="M235.985 26.8678V24.3542H229.939V15.1662H226.984V26.8678H235.985Z" fill="#312E29"/>
<path d="M142.153 38.977C142.679 40.3526 144.004 42 147.265 42C150.339 42 152.173 40.4715 152.173 38.3486C152.173 36.6502 151.137 35.3595 148.742 34.7311L146.67 34.1876C145.685 33.9329 145.227 33.6102 145.227 32.9648C145.227 32.2685 145.872 31.8269 147.044 31.8269C148.233 31.8269 149.099 32.4553 149.422 33.4573L149.456 33.6442L151.952 32.829L151.901 32.6252C151.307 30.8419 149.558 29.755 147.18 29.755C144.429 29.755 142.459 31.0627 142.459 33.2196C142.459 35.2746 143.749 36.2256 145.821 36.7691L147.52 37.2107C148.776 37.5503 149.235 37.924 149.235 38.6033C149.235 39.3506 148.573 39.8261 147.333 39.8261C145.821 39.8261 145.023 39.1468 144.412 37.6692L144.327 37.4654L142 38.6203L142.153 38.977Z" fill="#312E29"/>
<path d="M163.658 41.7283V39.3846H156.796V36.9899H162.282V34.6801H156.796V32.3704H163.369V30.0267H153.892V41.7283H163.658Z" fill="#312E29"/>
<path d="M168.273 41.7283V37.4824H170.736C172.162 37.4824 172.757 38.0598 172.893 39.6733L173.062 41.7283H176.17L175.797 39.2657C175.508 37.2446 174.506 36.3615 172.961 36.2596C174.693 36.0558 176.289 35.1727 176.289 33.1347C176.289 31.2495 174.999 30.0267 172.366 30.0267H165.386V41.7283H168.273ZM168.273 32.2176H171.585C172.842 32.2176 173.402 32.8629 173.402 33.6102C173.402 34.6462 172.842 35.3085 171.313 35.3085H168.273V32.2176Z" fill="#312E29"/>
<path d="M182.319 38.7392L179.771 30.0267H177.003L180.485 41.7283H184.136L187.618 30.0267H184.866L182.319 38.7392Z" fill="#312E29"/>
<path d="M191.793 41.7283V30.0267H188.838V41.7283H191.793Z" fill="#312E29"/>
<path d="M199.445 42C202.723 42 204.693 40.0809 205.304 37.5164L202.672 36.7012C202.4 38.2297 201.483 39.6563 199.632 39.6563C197.594 39.6563 196.558 38.1957 196.558 35.869C196.558 33.5083 197.764 32.0987 199.666 32.0987C201.177 32.0987 202.128 33.0667 202.434 34.5103L205.066 33.6102C204.506 31.3684 202.587 29.755 199.683 29.755C196.303 29.755 193.535 32.0817 193.535 35.9539C193.535 39.2487 195.573 42 199.445 42Z" fill="#312E29"/>
<path d="M210.47 37.9919L214.495 36.1068V33.4064L210.47 35.3085V32.4044H213.273V30.0267H206.072V32.4044H207.787V39.3506H206.072V41.7283H214.614V39.3506H210.47V37.9919Z" fill="#312E29"/>
<path d="M215.692 38.977C216.219 40.3526 217.544 42 220.804 42C223.878 42 225.713 40.4715 225.713 38.3486C225.713 36.6502 224.677 35.3595 222.282 34.7311L220.21 34.1876C219.225 33.9329 218.766 33.6102 218.766 32.9648C218.766 32.2685 219.412 31.8269 220.584 31.8269C221.772 31.8269 222.639 32.4553 222.961 33.4573L222.995 33.6442L225.492 32.829L225.441 32.6252C224.846 30.8419 223.097 29.755 220.719 29.755C217.968 29.755 215.998 31.0627 215.998 33.2196C215.998 35.2746 217.289 36.2256 219.361 36.7691L221.059 37.2107C222.316 37.5503 222.774 37.924 222.774 38.6033C222.774 39.3506 222.112 39.8261 220.872 39.8261C219.361 39.8261 218.563 39.1468 217.951 37.6692L217.866 37.4654L215.54 38.6203L215.692 38.977Z" fill="#312E29"/>
</svg>
