<svg width="122" height="18" viewBox="0 0 122 18" fill="none" xmlns="http://www.w3.org/2000/svg">
<path d="M4.176 17L5.304 13.76H12.168L13.32 17H17.76L11.376 0.464H6.264L0.024 17H4.176ZM8.712 3.8L11.112 10.568H6.336L8.712 3.8ZM28.0868 17C31.5428 17 34.5428 15.776 34.5428 12.128C34.5428 9.68 32.3108 8.072 29.9588 7.88C31.5668 7.736 33.4868 6.536 33.4868 4.256C33.4868 2.144 31.7348 0.464 28.5428 0.464H19.3508V17H28.0868ZM23.3828 3.632H27.1988C28.4948 3.632 29.2868 4.04 29.2868 5.168C29.2868 6.368 28.3508 6.848 27.1028 6.848H23.3828V3.632ZM23.3828 9.968H27.7988C29.5748 9.968 30.3428 10.592 30.3428 11.888C30.3428 13.064 29.6468 13.784 27.7748 13.784H23.3828V9.968ZM44.5614 17.384C49.8174 17.384 53.0334 13.592 53.0334 8.72C53.0334 3.872 49.8174 0.079999 44.5614 0.079999C39.3054 0.079999 36.1134 3.872 36.1134 8.72C36.1134 13.592 39.3054 17.384 44.5614 17.384ZM44.5614 14.072C42.0414 14.072 40.3854 12.152 40.3854 8.72C40.3854 5.312 42.0414 3.392 44.5614 3.392C47.1054 3.392 48.7374 5.312 48.7374 8.72C48.7374 12.152 47.1054 14.072 44.5614 14.072ZM62.0194 17.24C66.5074 17.24 69.5554 14.96 69.5554 10.928C69.5554 8.96 68.9074 6.992 68.5714 6.056L66.4834 0.464H62.5474L64.5154 5.84C65.0914 7.448 65.7154 9.272 65.7154 10.544C65.7154 12.536 64.2514 13.88 62.0194 13.88C59.8114 13.88 58.3234 12.536 58.3234 10.544C58.3234 9.272 58.9714 7.448 59.5714 5.84L61.4914 0.464H57.5794L55.5154 6.056C55.1314 7.112 54.5074 8.96 54.5074 10.928C54.5074 14.96 57.5554 17.24 62.0194 17.24ZM80.6113 17V3.968H86.5633V0.464H70.4833V3.968H76.4353V17H80.6113ZM98.9445 17.24C102.521 17.24 105.305 15.824 105.305 11.576V0.464H101.489V11.456C101.489 13.112 100.673 13.88 98.9445 13.88C97.2405 13.88 96.4005 13.112 96.4005 11.456V0.464H92.5845V11.576C92.5845 15.824 95.3685 17.24 98.9445 17.24ZM107.386 13.112C108.13 15.056 110.002 17.384 114.61 17.384C118.954 17.384 121.546 15.224 121.546 12.224C121.546 9.824 120.082 8 116.698 7.112L113.77 6.344C112.378 5.984 111.73 5.528 111.73 4.616C111.73 3.632 112.642 3.008 114.298 3.008C115.978 3.008 117.202 3.896 117.658 5.312L117.706 5.576L121.234 4.424L121.162 4.136C120.322 1.616 117.85 0.079999 114.49 0.079999C110.602 0.079999 107.818 1.928 107.818 4.976C107.818 7.88 109.642 9.224 112.57 9.992L114.97 10.616C116.746 11.096 117.394 11.624 117.394 12.584C117.394 13.64 116.458 14.312 114.706 14.312C112.57 14.312 111.442 13.352 110.578 11.264L110.458 10.976L107.17 12.608L107.386 13.112Z" fill="#312E29"/>
</svg>
