<svg width="166" height="18" viewBox="0 0 166 18" fill="none" xmlns="http://www.w3.org/2000/svg">
<path d="M18.672 11.48L15.456 0.464H11.064L7.824 11.552L4.512 0.464H0.048L5.64 17H9.552L13.08 4.904L16.56 17H20.448L25.848 0.464H21.936L18.672 11.48ZM31.7768 17V10.52H39.9608V17H44.1368V0.464H39.9608V6.968H31.7768V0.464H27.6008V17H31.7768ZM49.9494 17L51.0774 13.76H57.9414L59.0934 17H63.5334L57.1494 0.464H52.0374L45.7974 17H49.9494ZM54.4854 3.8L56.8854 10.568H52.1094L54.4854 3.8ZM78.5402 0.464H64.1882V5.288H67.5242V3.464H70.0202L66.9242 6.92C65.7002 8.288 64.5242 9.848 64.5242 11.96C64.5242 15.152 67.2602 17.24 71.2922 17.24C75.8042 17.24 78.1322 15.248 78.1322 12.368C78.1322 9.68 76.2842 8 73.5002 8C72.8042 8 72.1322 8.144 71.7242 8.336L72.2762 11.504C72.5642 11.408 72.8042 11.36 73.0442 11.36C73.9322 11.36 74.2682 11.816 74.2682 12.344C74.2682 13.304 73.3082 13.88 71.6282 13.88C69.3482 13.88 68.4602 12.8 68.4602 11.504C68.4602 10.304 69.1802 9.44 70.4282 8L74.4842 3.464H75.1802V6.224H78.5402V0.464ZM102.485 11.48L99.2685 0.464H94.8765L91.6365 11.552L88.3245 0.464H83.8605L89.4525 17H93.3645L96.8925 4.904L100.373 17H104.261L109.661 0.464H105.749L102.485 11.48ZM116.741 11.72L122.429 9.056V5.24L116.741 7.928V3.824H120.701V0.464H110.525V3.824H112.949V13.64H110.525V17H122.597V13.64H116.741V11.72ZM137.941 17C143.725 17 146.437 13.16 146.437 8.744C146.437 3.584 143.221 0.464 138.085 0.464H130.093V17H137.941ZM134.269 3.848H137.701C140.245 3.848 142.117 4.832 142.117 8.552C142.117 12.248 140.413 13.616 137.797 13.616H134.269V3.848ZM156.616 17.384C161.872 17.384 165.088 13.592 165.088 8.72C165.088 3.872 161.872 0.079999 156.616 0.079999C151.36 0.079999 148.168 3.872 148.168 8.72C148.168 13.592 151.36 17.384 156.616 17.384ZM156.616 14.072C154.096 14.072 152.44 12.152 152.44 8.72C152.44 5.312 154.096 3.392 156.616 3.392C159.16 3.392 160.792 5.312 160.792 8.72C160.792 12.152 159.16 14.072 156.616 14.072Z" fill="#312E29"/>
</svg>
