<svg width="83" height="42" viewBox="0 0 83 42" fill="none" xmlns="http://www.w3.org/2000/svg">
<path d="M18.672 11.48L15.456 0.464H11.064L7.824 11.552L4.512 0.464H0.048L5.64 17H9.552L13.08 4.904L16.56 17H20.448L25.848 0.464H21.936L18.672 11.48ZM31.7768 17V10.52H39.9608V17H44.1368V0.464H39.9608V6.968H31.7768V0.464H27.6008V17H31.7768ZM49.9494 17L51.0774 13.76H57.9414L59.0934 17H63.5334L57.1494 0.464H52.0374L45.7974 17H49.9494ZM54.4854 3.8L56.8854 10.568H52.1094L54.4854 3.8ZM78.5402 0.464H64.1882V5.288H67.5242V3.464H70.0202L66.9242 6.92C65.7002 8.288 64.5242 9.848 64.5242 11.96C64.5242 15.152 67.2602 17.24 71.2922 17.24C75.8042 17.24 78.1322 15.248 78.1322 12.368C78.1322 9.68 76.2842 8 73.5002 8C72.8042 8 72.1322 8.144 71.7242 8.336L72.2762 11.504C72.5642 11.408 72.8042 11.36 73.0442 11.36C73.9322 11.36 74.2682 11.816 74.2682 12.344C74.2682 13.304 73.3082 13.88 71.6282 13.88C69.3482 13.88 68.4602 12.8 68.4602 11.504C68.4602 10.304 69.1802 9.44 70.4282 8L74.4842 3.464H75.1802V6.224H78.5402V0.464ZM18.672 35.48L15.456 24.464H11.064L7.824 35.552L4.512 24.464H0.048L5.64 41H9.552L13.08 28.904L16.56 41H20.448L25.848 24.464H21.936L18.672 35.48ZM41.4008 41V37.688H31.7048V34.304H39.4568V31.04H31.7048V27.776H40.9928V24.464H27.6008V41H41.4008ZM48.2792 41H56.6072C61.0712 41 64.0232 38.552 64.0232 34.376V29.648C64.0232 26.744 62.7512 24.224 59.4632 24.224C56.9192 24.224 55.1192 26.12 55.1192 28.952V31.76H58.5752V29.216C58.5752 27.944 58.9112 27.584 59.3912 27.584C59.9912 27.584 60.2072 27.992 60.2072 30.032V34.136C60.2072 36.368 58.8632 37.64 56.4392 37.64H54.1352V26.816L51.9272 24.344L48.0632 25.376V29L50.3432 28.352V37.64H48.2792V41ZM74.2099 41.384C79.4659 41.384 82.6819 37.592 82.6819 32.72C82.6819 27.872 79.4659 24.08 74.2099 24.08C68.9539 24.08 65.7619 27.872 65.7619 32.72C65.7619 37.592 68.9539 41.384 74.2099 41.384ZM74.2099 38.072C71.6899 38.072 70.0339 36.152 70.0339 32.72C70.0339 29.312 71.6899 27.392 74.2099 27.392C76.7539 27.392 78.3859 29.312 78.3859 32.72C78.3859 36.152 76.7539 38.072 74.2099 38.072Z" fill="#312E29"/>
</svg>
