<svg width="64" height="21" viewBox="0 0 64 21" fill="none" xmlns="http://www.w3.org/2000/svg">
<path d="M16.7129 18.448L11.1929 7.552H14.0249V4.624H11.0729L12.5849 1.936L9.80088 0.447999L8.45688 3.064L7.16088 0.447999L4.32888 1.984L5.84088 4.624H2.96088V7.552H5.79288L0.224875 18.448L3.29688 20.104L4.76088 17.224H12.2009L13.6649 20.128L16.7129 18.448ZM10.4969 13.864H6.44088L8.45688 9.808L10.4969 13.864ZM23.4417 7.312C22.1697 7.312 21.1377 7.768 20.4417 8.368V5.896H24.6417L23.2737 2.824H16.8417V13.168C16.8417 17.416 19.0497 19.24 22.3857 19.24C25.9377 19.24 28.1217 17.392 28.1217 13.168C28.1217 8.992 26.1777 7.312 23.4417 7.312ZM24.5457 13.36C24.5457 15.328 23.6817 16.072 22.4097 16.072C21.2337 16.072 20.4417 15.256 20.4417 13.6V12.736C20.4417 11.32 21.2337 10.384 22.5057 10.384C23.8257 10.384 24.5457 11.176 24.5457 12.976V13.36ZM35.038 7.024C31.702 7.024 29.374 8.704 29.374 13.096C29.374 17.464 31.702 19.24 35.038 19.24C38.374 19.24 40.702 17.464 40.702 13.096C40.702 8.704 38.374 7.024 35.038 7.024ZM37.102 13.36C37.102 15.016 36.43 16.072 35.038 16.072C33.67 16.072 32.95 15.016 32.95 13.36V12.784C32.95 11.128 33.67 10.192 35.038 10.192C36.43 10.192 37.102 11.128 37.102 12.784V13.36ZM47.5765 19.24C50.5285 19.24 52.8085 17.704 52.8085 14.032V7.24H49.2325V13.792C49.2325 15.16 48.6565 16.072 47.5765 16.072C46.4965 16.072 45.9205 15.16 45.9205 13.792V7.24H42.3205V14.032C42.3205 17.704 44.6245 19.24 47.5765 19.24ZM57.1413 10.432V19H63.7413V15.832H60.7173V3.592H57.1413V7.24H54.0693V10.432H57.1413Z" fill="#312E29"/>
</svg>
