<svg width="85" height="22" viewBox="0 0 85 22" fill="none" xmlns="http://www.w3.org/2000/svg">
<path d="M8.92525 17.24C11.3253 17.24 13.1973 16.616 14.8293 15.296L13.2213 12.32C11.6853 13.424 10.5813 13.856 9.16525 13.856C6.33325 13.856 4.38925 11.888 4.38925 9.032C4.38925 5.768 6.11725 3.608 8.75725 3.608C10.3893 3.608 11.5653 4.448 11.5653 5.624C11.5653 7.04 10.0533 7.472 8.85325 6.272L6.93325 9.008C10.0053 11.84 15.3813 9.992 15.3813 5.912C15.3813 2.6 12.6693 0.223999 8.75725 0.223999C3.93325 0.223999 0.45325 3.848 0.45325 8.816V9.2C0.45325 13.76 4.10125 17.24 8.92525 17.24ZM21.7958 5.024C18.4598 5.024 16.1318 6.704 16.1318 11.096C16.1318 15.464 18.4598 17.24 21.7958 17.24C25.1318 17.24 27.4598 15.464 27.4598 11.096C27.4598 6.704 25.1318 5.024 21.7958 5.024ZM23.8598 11.36C23.8598 13.016 23.1878 14.072 21.7958 14.072C20.4278 14.072 19.7078 13.016 19.7078 11.36V10.784C19.7078 9.128 20.4278 8.192 21.7958 8.192C23.1878 8.192 23.8598 9.128 23.8598 10.784V11.36ZM40.2623 9.392C40.2623 6.872 38.6783 5.696 35.5343 5.456L29.2223 4.928V17H32.7983V8.432L34.8623 8.624C36.0143 8.72 36.5423 9.176 36.5423 10.088C36.5423 10.664 36.3503 11.456 35.9423 12.632L32.8703 21.608H39.6143V18.464H37.5983L39.6383 12.536C40.0703 11.264 40.2623 10.232 40.2623 9.392ZM44.2038 8.432V17H50.8038V13.832H47.7798V1.592H44.2038V5.24H41.1318V8.432H44.2038ZM63.1105 8.624C63.1105 6.728 61.7905 5.24 58.7665 5.24H52.8385V8.216H58.9345C59.6305 8.216 59.8945 8.456 59.8945 9.2V9.584H56.1985C53.4865 9.584 51.3985 10.88 51.3985 13.568C51.3985 15.848 53.1505 17.24 55.4305 17.24C57.5905 17.24 59.1505 15.872 59.1505 14.024C59.1505 13.664 59.1265 13.352 59.0305 13.088H56.1025C56.1505 13.232 56.1745 13.472 56.1745 13.592C56.1745 14.048 55.8625 14.408 55.4065 14.408C54.9265 14.408 54.6145 14.096 54.6145 13.544C54.6145 12.632 55.3825 12.272 56.4145 12.272H59.8945V17H64.9105V13.832H63.1105V8.624ZM74.1033 13.88C73.6233 13.928 72.6873 14.072 71.8953 14.072C70.1673 14.072 69.2313 13.16 69.2313 11.576V10.664C69.2313 9.032 70.1673 8.168 71.8953 8.168C72.6873 8.168 73.6233 8.288 74.1033 8.36V5.192C73.5753 5.12 72.6153 5.024 71.6793 5.024C67.7193 5.024 65.6313 7.088 65.6313 11.144C65.6313 15.152 67.7193 17.24 71.6793 17.24C72.5673 17.24 73.5753 17.12 74.1033 17.048V13.88ZM78.1413 8.432V17H84.7413V13.832H81.7173V1.592H78.1413V5.24H75.0693V8.432H78.1413Z" fill="#312E29"/>
</svg>
