<svg width="122" height="42" viewBox="0 0 122 42" fill="none" xmlns="http://www.w3.org/2000/svg">
<path d="M18.9097 41.9503C26.4153 41.9503 30.5464 38.1102 32.1173 33.6883V41.0194H39.4484V19.8406H19.7824V27.3463H30.1391V27.4045C28.9172 32.0591 25.2517 34.1537 21.1788 34.1537C14.6623 34.1537 10.3567 29.0918 10.3567 20.8297C10.3567 13.2077 14.255 7.97115 20.8879 7.97115C25.7171 7.97115 29.2663 10.6476 30.43 15.4768L39.0993 12.1022C37.3538 5.93472 31.3027 0 21.1206 0C9.30937 0 0 7.73841 0 21.237C0 34.3283 8.55298 41.9503 18.9097 41.9503Z" fill="#312E29"/>
<path d="M64.7947 41.9503C76.0241 41.9503 82.7734 35.3756 84.868 26.5899L75.8495 23.7971C74.9186 29.0336 71.7767 33.921 65.4347 33.921C58.4526 33.921 54.9035 28.9172 54.9035 20.9461C54.9035 12.8586 59.0345 8.02933 65.551 8.02933C70.7294 8.02933 73.9877 11.3458 75.035 16.2914L84.0534 13.2077C82.1334 5.52744 75.5586 0 65.6092 0C54.0307 0 44.5468 7.97115 44.5468 21.237C44.5468 32.5246 51.5288 41.9503 64.7947 41.9503Z" fill="#312E29"/>
<path d="M87.6717 31.5937C89.4754 36.3065 94.0137 41.9503 105.185 41.9503C115.716 41.9503 122 36.7138 122 29.4409C122 23.6225 118.451 19.2006 110.247 17.0478L103.149 15.1859C99.7739 14.3132 98.2029 13.2077 98.2029 10.9967C98.2029 8.61117 100.414 7.09839 104.429 7.09839C108.501 7.09839 111.469 9.25119 112.574 12.684L112.691 13.324L121.244 10.5312L121.069 9.83302C119.033 3.72375 113.04 0 104.894 0C95.4683 0 88.719 4.48013 88.719 11.8694C88.719 18.9097 93.141 22.1679 100.239 24.0298L106.058 25.5426C110.363 26.7063 111.934 27.9863 111.934 30.3136C111.934 32.8737 109.665 34.5028 105.418 34.5028C100.239 34.5028 97.5047 32.1755 95.4101 27.1135L95.1192 26.4153L87.148 30.3718L87.6717 31.5937Z" fill="#312E29"/>
</svg>
