<svg width="105" height="44" viewBox="0 0 105 44" fill="none" xmlns="http://www.w3.org/2000/svg">
<path d="M10.904 12.72L6.896 1.464H0.632V18H4.304V5.304L9.104 18H12.2L17.312 5.328V18H21.248V1.464H15.224L10.904 12.72ZM27.0588 18L28.1868 14.76H35.0508L36.2028 18H40.6428L34.2588 1.464H29.1468L22.9068 18H27.0588ZM31.5948 4.8L33.9948 11.568H29.2188L31.5948 4.8ZM46.3136 18V12H49.7936C51.8096 12 52.6496 12.816 52.8416 15.096L53.0816 18H57.4736L56.9456 14.52C56.5376 11.664 55.1216 10.416 52.9376 10.272C55.3856 9.984 57.6416 8.736 57.6416 5.856C57.6416 3.192 55.8176 1.464 52.0976 1.464H42.2336V18H46.3136ZM46.3136 4.56H50.9936C52.7696 4.56 53.5616 5.472 53.5616 6.528C53.5616 7.992 52.7696 8.928 50.6096 8.928H46.3136V4.56ZM66.4261 6.144L68.8021 6.744V3.144L59.8741 0.887999V4.488L62.6101 5.184V14.64H58.9621V18H69.9541V14.64H66.4261V6.144ZM71.1363 14.112C71.8803 16.056 73.7523 18.384 78.3603 18.384C82.7043 18.384 85.2963 16.224 85.2963 13.224C85.2963 10.824 83.8323 9 80.4483 8.112L77.5203 7.344C76.1283 6.984 75.4803 6.528 75.4803 5.616C75.4803 4.632 76.3923 4.008 78.0483 4.008C79.7283 4.008 80.9523 4.896 81.4083 6.312L81.4563 6.576L84.9843 5.424L84.9123 5.136C84.0723 2.616 81.6003 1.08 78.2403 1.08C74.3523 1.08 71.5683 2.928 71.5683 5.976C71.5683 8.88 73.3923 10.224 76.3203 10.992L78.7203 11.616C80.4963 12.096 81.1443 12.624 81.1443 13.584C81.1443 14.64 80.2083 15.312 78.4563 15.312C76.3203 15.312 75.1923 14.352 74.3283 12.264L74.2083 11.976L70.9203 13.608L71.1363 14.112ZM89.9416 18L91.0696 14.76H97.9336L99.0856 18H103.526L97.1416 1.464H92.0296L85.7896 18H89.9416ZM94.4776 4.8L96.8776 11.568H92.1016L94.4776 4.8ZM9.368 42C12.824 42 15.824 40.776 15.824 37.128C15.824 34.68 13.592 33.072 11.24 32.88C12.848 32.736 14.768 31.536 14.768 29.256C14.768 27.144 13.016 25.464 9.824 25.464H0.632V42H9.368ZM4.664 28.632H8.48C9.776 28.632 10.568 29.04 10.568 30.168C10.568 31.368 9.632 31.848 8.384 31.848H4.664V28.632ZM4.664 34.968H9.08C10.856 34.968 11.624 35.592 11.624 36.888C11.624 38.064 10.928 38.784 9.056 38.784H4.664V34.968ZM31.9867 42V38.688H22.2907V35.304H30.0427V32.04H22.2907V28.776H31.5787V25.464H18.1867V42H31.9867ZM47.1489 42V38.448H38.6049V25.464H34.4289V42H47.1489ZM61.8911 42V38.448H53.3471V25.464H49.1711V42H61.8911ZM78.8608 41.448L73.3408 30.552H76.1728V27.624H73.2208L74.7328 24.936L71.9728 23.448L70.6288 26.088L69.3328 23.448L66.5008 24.984L68.0128 27.624H65.1328V30.552H67.9648L62.3967 41.448L65.4448 43.08L66.9088 40.2H74.3728L75.8368 43.104L78.8608 41.448ZM72.6688 36.864H68.5888L70.6288 32.784L72.6688 36.864ZM84.1813 42V29.304L91.7413 42H96.7093V25.464H92.9173V37.128L86.1253 25.464H80.4133V42H84.1813ZM104.16 42V25.464H99.9836V42H104.16Z" fill="#312E29"/>
</svg>
