<svg width="214" height="21" viewBox="0 0 214 21" fill="none" xmlns="http://www.w3.org/2000/svg">
<path d="M10.904 13.72L6.896 2.464H0.632V19H4.304V6.304L9.104 19H12.2L17.312 6.328V19H21.248V2.464H15.224L10.904 13.72ZM27.0588 19L28.1868 15.76H35.0508L36.2028 19H40.6428L34.2588 2.464H29.1468L22.9068 19H27.0588ZM31.5948 5.8L33.9948 12.568H29.2188L31.5948 5.8ZM46.3136 19V13H49.7936C51.8096 13 52.6496 13.816 52.8416 16.096L53.0816 19H57.4736L56.9456 15.52C56.5376 12.664 55.1216 11.416 52.9376 11.272C55.3856 10.984 57.6416 9.736 57.6416 6.856C57.6416 4.192 55.8176 2.464 52.0976 2.464H42.2336V19H46.3136ZM46.3136 5.56H50.9936C52.7696 5.56 53.5616 6.472 53.5616 7.528C53.5616 8.992 52.7696 9.928 50.6096 9.928H46.3136V5.56ZM66.4261 7.144L68.8021 7.744V4.144L59.8741 1.888V5.488L62.6101 6.184V15.64H58.9621V19H69.9541V15.64H66.4261V7.144ZM71.1363 15.112C71.8803 17.056 73.7523 19.384 78.3603 19.384C82.7043 19.384 85.2963 17.224 85.2963 14.224C85.2963 11.824 83.8323 10 80.4483 9.112L77.5203 8.344C76.1283 7.984 75.4803 7.528 75.4803 6.616C75.4803 5.632 76.3923 5.008 78.0483 5.008C79.7283 5.008 80.9523 5.896 81.4083 7.312L81.4563 7.576L84.9843 6.424L84.9123 6.136C84.0723 3.616 81.6003 2.08 78.2403 2.08C74.3523 2.08 71.5683 3.928 71.5683 6.976C71.5683 9.88 73.3923 11.224 76.3203 11.992L78.7203 12.616C80.4963 13.096 81.1443 13.624 81.1443 14.584C81.1443 15.64 80.2083 16.312 78.4563 16.312C76.3203 16.312 75.1923 15.352 74.3283 13.264L74.2083 12.976L70.9203 14.608L71.1363 15.112ZM89.9416 19L91.0696 15.76H97.9336L99.0856 19H103.526L97.1416 2.464H92.0296L85.7896 19H89.9416ZM94.4776 5.8L96.8776 12.568H92.1016L94.4776 5.8ZM118.306 19C121.762 19 124.762 17.776 124.762 14.128C124.762 11.68 122.53 10.072 120.178 9.88C121.786 9.736 123.706 8.536 123.706 6.256C123.706 4.144 121.954 2.464 118.762 2.464H109.57V19H118.306ZM113.602 5.632H117.418C118.714 5.632 119.506 6.04 119.506 7.168C119.506 8.368 118.57 8.848 117.322 8.848H113.602V5.632ZM113.602 11.968H118.018C119.794 11.968 120.562 12.592 120.562 13.888C120.562 15.064 119.866 15.784 117.994 15.784H113.602V11.968ZM140.924 19V15.688H131.228V12.304H138.98V9.04H131.228V5.776H140.516V2.464H127.124V19H140.924ZM156.086 19V15.448H147.542V2.464H143.366V19H156.086ZM170.829 19V15.448H162.285V2.464H158.109V19H170.829ZM187.798 18.448L182.278 7.552H185.11V4.624H182.158L183.67 1.936L180.91 0.447999L179.566 3.088L178.27 0.447999L175.438 1.984L176.95 4.624H174.07V7.552H176.902L171.334 18.448L174.382 20.08L175.846 17.2H183.31L184.774 20.104L187.798 18.448ZM181.606 13.864H177.526L179.566 9.784L181.606 13.864ZM193.119 19V6.304L200.679 19H205.647V2.464H201.855V14.128L195.063 2.464H189.351V19H193.119ZM213.097 19V2.464H208.921V19H213.097Z" fill="#312E29"/>
</svg>
