<svg width="112" height="72" viewBox="0 0 112 72" fill="none" xmlns="http://www.w3.org/2000/svg">
<path d="M5.712 19V13H9.192C11.208 13 12.048 13.816 12.24 16.096L12.48 19H16.872L16.344 15.52C15.936 12.664 14.52 11.416 12.336 11.272C14.784 10.984 17.04 9.736 17.04 6.856C17.04 4.192 15.216 2.464 11.496 2.464H1.632V19H5.712ZM5.712 5.56H10.392C12.168 5.56 12.96 6.472 12.96 7.528C12.96 8.992 12.168 9.928 10.008 9.928H5.712V5.56ZM23.7846 19V2.464H19.6086V19H23.7846ZM35.8223 19V5.968H41.7743V2.464H25.6943V5.968H31.6463V19H35.8223ZM56.2123 18.448L50.6923 7.552H53.5243V4.624H50.5723L52.0843 1.936L49.3243 0.447999L47.9803 3.088L46.6843 0.447999L43.8523 1.984L45.3643 4.624H42.4843V7.552H45.3163L39.7483 18.448L42.7963 20.08L44.2603 17.2H51.7243L53.1883 20.104L56.2123 18.448ZM50.0203 13.864H45.9403L47.9803 9.784L50.0203 13.864ZM4.176 43L5.304 39.76H12.168L13.32 43H17.76L11.376 26.464H6.264L0.024 43H4.176ZM8.712 29.8L11.112 36.568H6.336L8.712 29.8ZM24.4148 26.464H20.6228V39.64H17.9588V43H30.3188V39.64H24.4148V26.464ZM42.3728 37.72L38.3648 26.464H32.1008V43H35.7728V30.304L40.5728 43H43.6688L48.7808 30.328V43H52.7168V26.464H46.6928L42.3728 37.72ZM69.7836 43V39.688H60.0876V36.304H67.8396V33.04H60.0876V29.776H69.3756V26.464H55.9836V43H69.7836ZM76.4018 43V26.464H72.2258V43H76.4018ZM78.9354 43H87.2634C91.7274 43 94.6794 40.552 94.6794 36.376V31.648C94.6794 28.744 93.4074 26.224 90.1194 26.224C87.5754 26.224 85.7754 28.12 85.7754 30.952V33.76H89.2314V31.216C89.2314 29.944 89.5674 29.584 90.0474 29.584C90.6474 29.584 90.8634 29.992 90.8634 32.032V36.136C90.8634 38.368 89.5194 39.64 87.0954 39.64H84.7914V28.816L82.5834 26.344L78.7194 27.376V31L80.9994 30.352V39.64H78.9354V43ZM111.361 42.448L105.841 31.552H108.673V28.624H105.721L107.233 25.936L104.473 24.448L103.129 27.088L101.833 24.448L99.0008 25.984L100.513 28.624H97.6328V31.552H100.465L94.8967 42.448L97.9448 44.08L99.4088 41.2H106.873L108.337 44.104L111.361 42.448ZM105.169 37.864H101.089L103.129 33.784L105.169 37.864ZM5.808 67V60.952H12.936V57.64H5.808V53.872H14.568V50.464H1.632V67H5.808ZM31.8698 66.16L29.6138 66.904L27.3578 60.136C29.7098 59.56 31.2938 57.808 31.2938 55.288C31.2938 52.288 29.0618 50.464 25.5338 50.464H15.3818V53.824H17.8058V67H21.6218V60.328H23.6618L27.2137 71.272L32.9978 69.376L31.8698 66.16ZM25.4138 53.824C26.4458 53.824 27.3818 54.064 27.3818 55.384C27.3818 56.608 26.4458 56.992 25.4138 56.992H21.6218V53.824H25.4138ZM47.4476 67V63.688H37.7516V60.304H45.5036V57.04H37.7516V53.776H47.0396V50.464H33.6476V67H47.4476ZM54.0658 67V50.464H49.8898V67H54.0658ZM66.1035 67V53.968H72.0555V50.464H55.9755V53.968H61.9275V67H66.1035ZM86.4936 66.448L80.9736 55.552H83.8056V52.624H80.8536L82.3656 49.936L79.6056 48.448L78.2616 51.088L76.9656 48.448L74.1336 49.984L75.6456 52.624H72.7656V55.552H75.5976L70.0296 66.448L73.0776 68.08L74.5416 65.2H82.0056L83.4696 68.104L86.4936 66.448ZM80.3016 61.864H76.2216L78.2616 57.784L80.3016 61.864ZM93.0236 67.24C97.4636 67.24 99.7436 65.32 99.7436 62.32C99.7436 59.896 98.3276 58.504 94.9196 57.28L92.0876 56.224C91.1036 55.864 90.7436 55.48 90.7436 54.904C90.7436 54.136 91.4636 53.824 92.9756 53.824H94.7276V55.672H98.5436V50.464H92.8556C89.1836 50.464 86.8076 52.24 86.8076 55.096C86.8076 57.28 88.1756 58.84 90.9116 59.8L93.2636 60.592C95.2556 61.264 95.8076 61.672 95.8076 62.464C95.8076 63.424 95.0156 63.88 93.1916 63.88C91.2236 63.88 90.4556 63.376 90.4556 61.888H86.5436C86.5436 65.464 88.7996 67.24 93.0236 67.24Z" fill="#312E29"/>
</svg>
