<svg width="275" height="24" viewBox="0 0 275 24" fill="none" xmlns="http://www.w3.org/2000/svg">
<path d="M4.712 19V13H8.192C10.208 13 11.048 13.816 11.24 16.096L11.48 19H15.872L15.344 15.52C14.936 12.664 13.52 11.416 11.336 11.272C13.784 10.984 16.04 9.736 16.04 6.856C16.04 4.192 14.216 2.464 10.496 2.464H0.632V19H4.712ZM4.712 5.56H9.392C11.168 5.56 11.96 6.472 11.96 7.528C11.96 8.992 11.168 9.928 9.008 9.928H4.712V5.56ZM22.7846 19V2.464H18.6086V19H22.7846ZM34.8223 19V5.968H40.7743V2.464H24.6943V5.968H30.6463V19H34.8223ZM55.2123 18.448L49.6923 7.552H52.5243V4.624H49.5723L51.0843 1.936L48.3243 0.447999L46.9803 3.088L45.6843 0.447999L42.8523 1.984L44.3643 4.624H41.4843V7.552H44.3163L38.7483 18.448L41.7963 20.08L43.2603 17.2H50.7243L52.1883 20.104L55.2123 18.448ZM49.0203 13.864H44.9403L46.9803 9.784L49.0203 13.864ZM63.0823 19L64.2103 15.76H71.0743L72.2263 19H76.6663L70.2823 2.464H65.1703L58.9303 19H63.0823ZM67.6183 5.8L70.0183 12.568H65.2422L67.6183 5.8ZM83.321 2.464H79.529V15.64H76.865V19H89.225V15.64H83.321V2.464ZM101.279 13.72L97.271 2.464H91.007V19H94.679V6.304L99.479 19H102.575L107.687 6.328V19H111.623V2.464H105.599L101.279 13.72ZM128.69 19V15.688H118.994V12.304H126.746V9.04H118.994V5.776H128.282V2.464H114.89V19H128.69ZM135.308 19V2.464H131.132V19H135.308ZM137.842 19H146.17C150.634 19 153.586 16.552 153.586 12.376V7.648C153.586 4.744 152.314 2.224 149.026 2.224C146.482 2.224 144.682 4.12 144.682 6.952V9.76H148.138V7.216C148.138 5.944 148.474 5.584 148.954 5.584C149.554 5.584 149.77 5.992 149.77 8.032V12.136C149.77 14.368 148.426 15.64 146.002 15.64H143.698V4.816L141.49 2.344L137.626 3.376V7L139.906 6.352V15.64H137.842V19ZM170.267 18.448L164.747 7.552H167.579V4.624H164.627L166.139 1.936L163.379 0.447999L162.035 3.088L160.739 0.447999L157.907 1.984L159.419 4.624H156.539V7.552H159.371L153.803 18.448L156.851 20.08L158.315 17.2H165.779L167.243 20.104L170.267 18.448ZM164.075 13.864H159.995L162.035 9.784L164.075 13.864ZM180.449 19V12.952H187.577V9.64H180.449V5.872H189.209V2.464H176.273V19H180.449ZM206.51 18.16L204.254 18.904L201.998 12.136C204.35 11.56 205.934 9.808 205.934 7.288C205.934 4.288 203.702 2.464 200.174 2.464H190.022V5.824H192.446V19H196.262V12.328H198.302L201.854 23.272L207.638 21.376L206.51 18.16ZM200.054 5.824C201.086 5.824 202.022 6.064 202.022 7.384C202.022 8.608 201.086 8.992 200.054 8.992H196.262V5.824H200.054ZM222.088 19V15.688H212.392V12.304H220.144V9.04H212.392V5.776H221.68V2.464H208.288V19H222.088ZM228.706 19V2.464H224.53V19H228.706ZM240.744 19V5.968H246.696V2.464H230.616V5.968H236.568V19H240.744ZM261.134 18.448L255.614 7.552H258.446V4.624H255.494L257.006 1.936L254.246 0.447999L252.902 3.088L251.606 0.447999L248.774 1.984L250.286 4.624H247.406V7.552H250.238L244.67 18.448L247.718 20.08L249.182 17.2H256.646L258.11 20.104L261.134 18.448ZM254.942 13.864H250.862L252.902 9.784L254.942 13.864ZM267.664 19.24C272.104 19.24 274.384 17.32 274.384 14.32C274.384 11.896 272.968 10.504 269.56 9.28L266.728 8.224C265.744 7.864 265.384 7.48 265.384 6.904C265.384 6.136 266.104 5.824 267.616 5.824H269.368V7.672H273.184V2.464H267.496C263.824 2.464 261.448 4.24 261.448 7.096C261.448 9.28 262.816 10.84 265.552 11.8L267.904 12.592C269.896 13.264 270.448 13.672 270.448 14.464C270.448 15.424 269.656 15.88 267.832 15.88C265.864 15.88 265.096 15.376 265.096 13.888H261.184C261.184 17.464 263.44 19.24 267.664 19.24Z" fill="#312E29"/>
</svg>
