<svg width="183" height="22" viewBox="0 0 183 22" fill="none" xmlns="http://www.w3.org/2000/svg">
<path d="M9.288 17.384C14.544 17.384 17.76 13.592 17.76 8.72C17.76 3.872 14.544 0.079999 9.288 0.079999C4.032 0.079999 0.84 3.872 0.84 8.72C0.84 13.592 4.032 17.384 9.288 17.384ZM9.288 14.072C6.768 14.072 5.112 12.152 5.112 8.72C5.112 5.312 6.768 3.392 9.288 3.392C11.832 3.392 13.464 5.312 13.464 8.72C13.464 12.152 11.832 14.072 9.288 14.072ZM27.6339 17.384C32.0739 17.384 35.3379 15.464 35.3379 10.904V0.464H31.1619V10.592C31.1619 13.184 29.9859 14.12 27.7539 14.12C25.5699 14.12 24.3699 13.136 24.3699 10.544V0.464H20.0499V10.712C20.0499 15.272 23.0499 17.384 27.6339 17.384ZM42.5089 17V11H45.9889C48.0049 11 48.8449 11.816 49.0369 14.096L49.2769 17H53.6689L53.1409 13.52C52.7329 10.664 51.3169 9.416 49.1329 9.272C51.5809 8.984 53.8369 7.736 53.8369 4.856C53.8369 2.192 52.0129 0.464 48.2929 0.464H38.4289V17H42.5089ZM42.5089 3.56H47.1889C48.9649 3.56 49.7569 4.472 49.7569 5.528C49.7569 6.992 48.9649 7.928 46.8049 7.928H42.5089V3.56ZM60.7691 13.112C61.5131 15.056 63.3851 17.384 67.9931 17.384C72.3371 17.384 74.9291 15.224 74.9291 12.224C74.9291 9.824 73.4651 8 70.0811 7.112L67.1531 6.344C65.7611 5.984 65.1131 5.528 65.1131 4.616C65.1131 3.632 66.0251 3.008 67.6811 3.008C69.3611 3.008 70.5851 3.896 71.0411 5.312L71.0891 5.576L74.6171 4.424L74.5451 4.136C73.7051 1.616 71.2331 0.079999 67.8731 0.079999C63.9851 0.079999 61.2011 1.928 61.2011 4.976C61.2011 7.88 63.0251 9.224 65.9531 9.992L68.3531 10.616C70.1291 11.096 70.7771 11.624 70.7771 12.584C70.7771 13.64 69.8411 14.312 68.0891 14.312C65.9531 14.312 64.8251 13.352 63.9611 11.264L63.8411 10.976L60.5531 12.608L60.7691 13.112ZM91.1586 17V13.688H81.4626V10.304H89.2146V7.04H81.4626V3.776H90.7506V0.464H77.3586V17H91.1586ZM108.745 16.16L106.489 16.904L104.233 10.136C106.585 9.56 108.169 7.808 108.169 5.288C108.169 2.288 105.937 0.464 102.409 0.464H92.2568V3.824H94.6808V17H98.4968V10.328H100.537L104.089 21.272L109.873 19.376L108.745 16.16ZM102.289 3.824C103.321 3.824 104.257 4.064 104.257 5.384C104.257 6.608 103.321 6.992 102.289 6.992H98.4968V3.824H102.289ZM117.603 13.112L113.643 0.464H108.963L114.819 17H119.931L125.691 0.464H121.539L117.603 13.112ZM131.597 17V0.464H127.421V17H131.597ZM142.411 17.384C147.043 17.384 149.827 14.672 150.691 11.048L146.971 9.896C146.587 12.056 145.291 14.072 142.675 14.072C139.795 14.072 138.331 12.008 138.331 8.72C138.331 5.384 140.035 3.392 142.723 3.392C144.859 3.392 146.203 4.76 146.635 6.8L150.355 5.528C149.563 2.36 146.851 0.079999 142.747 0.079999C137.971 0.079999 134.059 3.368 134.059 8.84C134.059 13.496 136.939 17.384 142.411 17.384ZM162.023 9.824L163.055 13.76H158.015V10.904H161.063V7.544H158.015V6.032L163.247 4.592V6.512H167.039V0.0319996L158.015 2.552V0.464H154.223V3.608L151.799 4.28V7.736L154.223 7.064V13.76H151.799V17H167.447L166.439 13.208H168.359V9.824H162.023ZM175.852 17.24C180.292 17.24 182.572 15.32 182.572 12.32C182.572 9.896 181.156 8.504 177.748 7.28L174.916 6.224C173.932 5.864 173.572 5.48 173.572 4.904C173.572 4.136 174.292 3.824 175.804 3.824H177.556V5.672H181.372V0.464H175.684C172.012 0.464 169.636 2.24 169.636 5.096C169.636 7.28 171.004 8.84 173.74 9.8L176.092 10.592C178.084 11.264 178.636 11.672 178.636 12.464C178.636 13.424 177.844 13.88 176.02 13.88C174.052 13.88 173.284 13.376 173.284 11.888H169.372C169.372 15.464 171.628 17.24 175.852 17.24Z" fill="#312E29"/>
</svg>
