<svg width="123" height="46" viewBox="0 0 123 46" fill="none" xmlns="http://www.w3.org/2000/svg">
<path d="M9.288 17.384C14.544 17.384 17.76 13.592 17.76 8.72C17.76 3.872 14.544 0.079999 9.288 0.079999C4.032 0.079999 0.84 3.872 0.84 8.72C0.84 13.592 4.032 17.384 9.288 17.384ZM9.288 14.072C6.768 14.072 5.112 12.152 5.112 8.72C5.112 5.312 6.768 3.392 9.288 3.392C11.832 3.392 13.464 5.312 13.464 8.72C13.464 12.152 11.832 14.072 9.288 14.072ZM27.6339 17.384C32.0739 17.384 35.3379 15.464 35.3379 10.904V0.464H31.1619V10.592C31.1619 13.184 29.9859 14.12 27.7539 14.12C25.5699 14.12 24.3699 13.136 24.3699 10.544V0.464H20.0499V10.712C20.0499 15.272 23.0499 17.384 27.6339 17.384ZM42.5089 17V11H45.9889C48.0049 11 48.8449 11.816 49.0369 14.096L49.2769 17H53.6689L53.1409 13.52C52.7329 10.664 51.3169 9.416 49.1329 9.272C51.5809 8.984 53.8369 7.736 53.8369 4.856C53.8369 2.192 52.0129 0.464 48.2929 0.464H38.4289V17H42.5089ZM42.5089 3.56H47.1889C48.9649 3.56 49.7569 4.472 49.7569 5.528C49.7569 6.992 48.9649 7.928 46.8049 7.928H42.5089V3.56ZM0.816 37.112C1.56 39.056 3.432 41.384 8.04 41.384C12.384 41.384 14.976 39.224 14.976 36.224C14.976 33.824 13.512 32 10.128 31.112L7.2 30.344C5.808 29.984 5.16 29.528 5.16 28.616C5.16 27.632 6.072 27.008 7.728 27.008C9.408 27.008 10.632 27.896 11.088 29.312L11.136 29.576L14.664 28.424L14.592 28.136C13.752 25.616 11.28 24.08 7.92 24.08C4.032 24.08 1.248 25.928 1.248 28.976C1.248 31.88 3.072 33.224 6 33.992L8.4 34.616C10.176 35.096 10.824 35.624 10.824 36.584C10.824 37.64 9.888 38.312 8.136 38.312C6 38.312 4.872 37.352 4.008 35.264L3.888 34.976L0.6 36.608L0.816 37.112ZM31.2054 41V37.688H21.5094V34.304H29.2614V31.04H21.5094V27.776H30.7974V24.464H17.4054V41H31.2054ZM48.7916 40.16L46.5356 40.904L44.2796 34.136C46.6316 33.56 48.2156 31.808 48.2156 29.288C48.2156 26.288 45.9836 24.464 42.4556 24.464H32.3036V27.824H34.7276V41H38.5436V34.328H40.5836L44.1356 45.272L49.9196 43.376L48.7916 40.16ZM42.3356 27.824C43.3676 27.824 44.3036 28.064 44.3036 29.384C44.3036 30.608 43.3676 30.992 42.3356 30.992H38.5436V27.824H42.3356ZM57.6495 37.112L53.6895 24.464H49.0095L54.8655 41H59.9775L65.7375 24.464H61.5855L57.6495 37.112ZM71.6439 41V24.464H67.4679V41H71.6439ZM82.4576 41.384C87.0896 41.384 89.8736 38.672 90.7376 35.048L87.0176 33.896C86.6336 36.056 85.3376 38.072 82.7216 38.072C79.8416 38.072 78.3776 36.008 78.3776 32.72C78.3776 29.384 80.0816 27.392 82.7696 27.392C84.9056 27.392 86.2496 28.76 86.6816 30.8L90.4016 29.528C89.6096 26.36 86.8976 24.08 82.7936 24.08C78.0176 24.08 74.1056 27.368 74.1056 32.84C74.1056 37.496 76.9856 41.384 82.4576 41.384ZM102.07 33.824L103.102 37.76H98.0621V34.904H101.11V31.544H98.0621V30.032L103.294 28.592V30.512H107.086V24.032L98.0621 26.552V24.464H94.2701V27.608L91.8461 28.28V31.736L94.2701 31.064V37.76H91.8461V41H107.494L106.486 37.208H108.406V33.824H102.07ZM115.899 41.24C120.339 41.24 122.619 39.32 122.619 36.32C122.619 33.896 121.203 32.504 117.795 31.28L114.963 30.224C113.979 29.864 113.619 29.48 113.619 28.904C113.619 28.136 114.339 27.824 115.851 27.824H117.603V29.672H121.419V24.464H115.731C112.059 24.464 109.683 26.24 109.683 29.096C109.683 31.28 111.051 32.84 113.787 33.8L116.139 34.592C118.131 35.264 118.683 35.672 118.683 36.464C118.683 37.424 117.891 37.88 116.067 37.88C114.099 37.88 113.331 37.376 113.331 35.888H109.419C109.419 39.464 111.675 41.24 115.899 41.24Z" fill="#312E29"/>
</svg>
