<svg width="154" height="22" viewBox="0 0 154 22" fill="none" xmlns="http://www.w3.org/2000/svg">
<path d="M9.288 17.384C14.544 17.384 17.76 13.592 17.76 8.72C17.76 3.872 14.544 0.079999 9.288 0.079999C4.032 0.079999 0.84 3.872 0.84 8.72C0.84 13.592 4.032 17.384 9.288 17.384ZM9.288 14.072C6.768 14.072 5.112 12.152 5.112 8.72C5.112 5.312 6.768 3.392 9.288 3.392C11.832 3.392 13.464 5.312 13.464 8.72C13.464 12.152 11.832 14.072 9.288 14.072ZM27.6339 17.384C32.0739 17.384 35.3379 15.464 35.3379 10.904V0.464H31.1619V10.592C31.1619 13.184 29.9859 14.12 27.7539 14.12C25.5699 14.12 24.3699 13.136 24.3699 10.544V0.464H20.0499V10.712C20.0499 15.272 23.0499 17.384 27.6339 17.384ZM42.5089 17V11H45.9889C48.0049 11 48.8449 11.816 49.0369 14.096L49.2769 17H53.6689L53.1409 13.52C52.7329 10.664 51.3169 9.416 49.1329 9.272C51.5809 8.984 53.8369 7.736 53.8369 4.856C53.8369 2.192 52.0129 0.464 48.2929 0.464H38.4289V17H42.5089ZM42.5089 3.56H47.1889C48.9649 3.56 49.7569 4.472 49.7569 5.528C49.7569 6.992 48.9649 7.928 46.8049 7.928H42.5089V3.56ZM78.0158 11.48L74.7998 0.464H70.4078L67.1678 11.552L63.8558 0.464H59.3918L64.9838 17H68.8958L72.4238 4.904L75.9038 17H79.7918L85.1918 0.464H81.2798L78.0158 11.48ZM94.1318 17.384C99.3878 17.384 102.604 13.592 102.604 8.72C102.604 3.872 99.3878 0.079999 94.1318 0.079999C88.8758 0.079999 85.6838 3.872 85.6838 8.72C85.6838 13.592 88.8758 17.384 94.1318 17.384ZM94.1318 14.072C91.6118 14.072 89.9558 12.152 89.9558 8.72C89.9558 5.312 91.6118 3.392 94.1318 3.392C96.6758 3.392 98.3078 5.312 98.3078 8.72C98.3078 12.152 96.6758 14.072 94.1318 14.072ZM120.206 16.16L117.95 16.904L115.694 10.136C118.046 9.56 119.63 7.808 119.63 5.288C119.63 2.288 117.398 0.464 113.87 0.464H103.718V3.824H106.142V17H109.958V10.328H111.998L115.55 21.272L121.334 19.376L120.206 16.16ZM113.75 3.824C114.782 3.824 115.718 4.064 115.718 5.384C115.718 6.608 114.782 6.992 113.75 6.992H109.958V3.824H113.75ZM134.704 17V13.448H126.16V0.464H121.984V17H134.704ZM144.574 17C150.358 17 153.07 13.16 153.07 8.744C153.07 3.584 149.854 0.464 144.718 0.464H136.726V17H144.574ZM140.902 3.848H144.334C146.878 3.848 148.75 4.832 148.75 8.552C148.75 12.248 147.046 13.616 144.43 13.616H140.902V3.848Z" fill="#312E29"/>
</svg>
